ply
format ascii 1.0
comment Created by cloudViewer
element vertex 25
property double x
property double y
property double z
property double nx
property double ny
property double nz
element face 32
property list uchar uint vertex_indices
end_header
-0.5 -0.5 0 0.000977516 0.000977516 0.999999 
-0.5 0.5 0 0.000977516 0.000977516 0.999999 
0.5 0.5 0 0.000977516 0.000977516 0.999999 
0.5 -0.5 0 0.000977516 0.000977516 0.999999 
0 0 0 0.000977516 0.000977516 0.999999 
0 0.5 0 0.000977516 0.000977516 0.999999 
-0.5 0 0 0.000977516 0.000977516 0.999999 
0 -0.5 0 0.000977516 0.000977516 0.999999 
0.5 0 0 0.000977516 0.000977516 0.999999 
-0.25 -0.25 0 0.000977516 0.000977516 0.999999 
-0.25 0 0 0.000977516 0.000977516 0.999999 
-0.5 -0.25 0 0.000977516 0.000977516 0.999999 
0.25 0.25 0 0.000977516 0.000977516 0.999999 
0.25 0.5 0 0.000977516 0.000977516 0.999999 
0 0.25 0 0.000977516 0.000977516 0.999999 
-0.25 0.5 0 0.000977516 0.000977516 0.999999 
-0.5 0.25 0 0.000977516 0.000977516 0.999999 
-0.25 0.25 0 0.000977516 0.000977516 0.999999 
-0.25 -0.5 0 0.000977516 0.000977516 0.999999 
0 -0.25 0 0.000977516 0.000977516 0.999999 
0.25 -0.5 0 0.000977516 0.000977516 0.999999 
0.5 -0.25 0 0.000977516 0.000977516 0.999999 
0.25 -0.25 0 0.000977516 0.000977516 0.999999 
0.5 0.25 0 0.000977516 0.000977516 0.999999 
0.25 0 0 0.000977516 0.000977516 0.999999 
3 0 9 11 
3 9 4 10 
3 10 6 11 
3 9 10 11 
3 4 12 14 
3 12 2 13 
3 13 5 14 
3 12 13 14 
3 5 15 17 
3 15 1 16 
3 16 6 17 
3 15 16 17 
3 4 14 10 
3 14 5 17 
3 17 6 10 
3 14 17 10 
3 0 18 9 
3 18 7 19 
3 19 4 9 
3 18 19 9 
3 7 20 22 
3 20 3 21 
3 21 8 22 
3 20 21 22 
3 8 23 24 
3 23 2 12 
3 12 4 24 
3 23 12 24 
3 7 22 19 
3 22 8 24 
3 24 4 19 
3 22 24 19 
